<svg width="33" height="32" viewBox="0 0 33 32" fill="none" xmlns="http://www.w3.org/2000/svg">
<path d="M23.0577 20.1258H21.6123L21.1 19.6318C22.893 17.546 23.9725 14.8382 23.9725 11.8925C23.9725 5.32419 18.6483 0 12.08 0C5.51169 0 0.1875 5.32419 0.1875 11.8925C0.1875 18.4608 5.51169 23.785 12.08 23.785C15.0257 23.785 17.7335 22.7055 19.8193 20.9125L20.3133 21.4248V22.8702L29.4614 32L32.1875 29.2739L23.0577 20.1258ZM12.08 20.1258C7.52426 20.1258 3.84673 16.4483 3.84673 11.8925C3.84673 7.33676 7.52426 3.65923 12.08 3.65923C16.6358 3.65923 20.3133 7.33676 20.3133 11.8925C20.3133 16.4483 16.6358 20.1258 12.08 20.1258Z" fill="#B4B4B4"/>
</svg>
